<mxfile host="app.diagrams.net" modified="2023-06-14T21:48:53.661Z" agent="Mozilla/5.0 (Windows NT 10.0; Win64; x64) AppleWebKit/537.36 (KHTML, like Gecko) Chrome/114.0.0.0 Safari/537.36" etag="fSHXX2cHp_kE0v7Zmk3V" version="21.3.8" type="github">
  <diagram name="PÃ¡gina-1" id="Phq4LAJG02BxFTJI0zZ8">
    <mxGraphModel dx="548" dy="319" grid="1" gridSize="10" guides="1" tooltips="1" connect="1" arrows="1" fold="1" page="1" pageScale="1" pageWidth="827" pageHeight="1169" math="0" shadow="0">
      <root>
        <mxCell id="0" />
        <mxCell id="1" parent="0" />
        <mxCell id="KGtTADQLknPRgAJbe7GY-10" style="edgeStyle=orthogonalEdgeStyle;rounded=0;orthogonalLoop=1;jettySize=auto;html=1;endArrow=block;endFill=0;" edge="1" parent="1" source="KGtTADQLknPRgAJbe7GY-1">
          <mxGeometry relative="1" as="geometry">
            <mxPoint x="460" y="290" as="targetPoint" />
          </mxGeometry>
        </mxCell>
        <mxCell id="KGtTADQLknPRgAJbe7GY-1" value="ContaCorrente" style="swimlane;whiteSpace=wrap;html=1;" vertex="1" parent="1">
          <mxGeometry x="440" y="340" width="200" height="200" as="geometry" />
        </mxCell>
        <mxCell id="KGtTADQLknPRgAJbe7GY-2" value="- &lt;b&gt;int&lt;/b&gt;&amp;nbsp;idCliente&lt;br&gt;-&lt;b&gt;&amp;nbsp;int&lt;/b&gt;&amp;nbsp;idContaCorrente&lt;br&gt;- &lt;b&gt;int&lt;/b&gt; numeroAgencia&lt;br&gt;- &lt;b&gt;double&lt;/b&gt;&amp;nbsp;saldoConta&lt;br&gt;&lt;b&gt;- double&lt;/b&gt;&amp;nbsp;pacoteTaxas&lt;br&gt;- &lt;b&gt;double&lt;/b&gt;&amp;nbsp;chequeEspecial" style="text;html=1;align=left;verticalAlign=middle;resizable=0;points=[];autosize=1;strokeColor=none;fillColor=none;" vertex="1" parent="KGtTADQLknPRgAJbe7GY-1">
          <mxGeometry x="10" y="28" width="160" height="100" as="geometry" />
        </mxCell>
        <mxCell id="KGtTADQLknPRgAJbe7GY-3" value="Cliente" style="swimlane;whiteSpace=wrap;html=1;" vertex="1" parent="1">
          <mxGeometry x="300" y="140" width="200" height="150" as="geometry" />
        </mxCell>
        <mxCell id="KGtTADQLknPRgAJbe7GY-4" value="- &lt;b&gt;int&lt;/b&gt;&amp;nbsp;idCliente&lt;br&gt;-&lt;b&gt;&amp;nbsp;int&lt;/b&gt;&amp;nbsp;numCPF&lt;br&gt;- &lt;b&gt;String&lt;/b&gt; Endereco&lt;br&gt;- &lt;b&gt;int&lt;/b&gt; telefoneContato&lt;br&gt;- &lt;b&gt;int&lt;/b&gt;&amp;nbsp;numRG&lt;br&gt;- &lt;b&gt;String &lt;/b&gt;Nome&lt;br&gt;- &lt;b&gt;String&lt;/b&gt;&amp;nbsp;Sobrenome" style="text;html=1;align=left;verticalAlign=middle;resizable=0;points=[];autosize=1;strokeColor=none;fillColor=none;" vertex="1" parent="KGtTADQLknPRgAJbe7GY-3">
          <mxGeometry x="10" y="30" width="130" height="110" as="geometry" />
        </mxCell>
        <mxCell id="KGtTADQLknPRgAJbe7GY-5" value="&lt;font style=&quot;font-size: 10px;&quot;&gt;+ verificaSenha(&lt;b&gt;int &lt;/b&gt;numSenha)&lt;br&gt;+ mostraSaldo()&lt;br&gt;+ sacarDinheiro(&lt;b&gt;double&lt;/b&gt; valor)&lt;br&gt;+ depositarDinheiro(&lt;b&gt;double&lt;/b&gt;&amp;nbsp;valor)&lt;br&gt;&lt;/font&gt;" style="text;html=1;align=left;verticalAlign=middle;resizable=0;points=[];autosize=1;strokeColor=none;fillColor=none;" vertex="1" parent="1">
          <mxGeometry x="450" y="467" width="170" height="70" as="geometry" />
        </mxCell>
        <mxCell id="KGtTADQLknPRgAJbe7GY-9" style="edgeStyle=orthogonalEdgeStyle;rounded=0;orthogonalLoop=1;jettySize=auto;html=1;entryX=0.25;entryY=1;entryDx=0;entryDy=0;endArrow=block;endFill=0;" edge="1" parent="1" source="KGtTADQLknPRgAJbe7GY-6" target="KGtTADQLknPRgAJbe7GY-3">
          <mxGeometry relative="1" as="geometry" />
        </mxCell>
        <mxCell id="KGtTADQLknPRgAJbe7GY-6" value="ContaPoupanca" style="swimlane;whiteSpace=wrap;html=1;" vertex="1" parent="1">
          <mxGeometry x="180" y="340" width="200" height="200" as="geometry" />
        </mxCell>
        <mxCell id="KGtTADQLknPRgAJbe7GY-7" value="- &lt;b&gt;int&lt;/b&gt;&amp;nbsp;idCliente&lt;br&gt;-&lt;b&gt;&amp;nbsp;int&lt;/b&gt;&amp;nbsp;idContaCorrente&lt;br&gt;- &lt;b&gt;int&lt;/b&gt; numeroAgencia&lt;br&gt;- &lt;b&gt;double&lt;/b&gt;&amp;nbsp;saldoPoupanca&lt;br&gt;- &lt;b&gt;double &lt;/b&gt;taxaJuros" style="text;html=1;align=left;verticalAlign=middle;resizable=0;points=[];autosize=1;strokeColor=none;fillColor=none;" vertex="1" parent="KGtTADQLknPRgAJbe7GY-6">
          <mxGeometry x="10" y="23" width="160" height="90" as="geometry" />
        </mxCell>
        <mxCell id="KGtTADQLknPRgAJbe7GY-8" value="&lt;font style=&quot;font-size: 10px;&quot;&gt;+ verificaSenha(&lt;b&gt;int &lt;/b&gt;numSenha)&lt;br&gt;+ mostraSaldoPoupanca()&lt;br&gt;+ sacarDinheiro(&lt;b style=&quot;border-color: var(--border-color);&quot;&gt;double&lt;/b&gt;&amp;nbsp;valor)&lt;br style=&quot;border-color: var(--border-color);&quot;&gt;+ depositarDinheiro(&lt;b style=&quot;border-color: var(--border-color);&quot;&gt;double&lt;/b&gt;&amp;nbsp;valor)&lt;br&gt;+ sacarJuros(&lt;b&gt;double&lt;/b&gt;&amp;nbsp;valor)&lt;br&gt;&lt;br&gt;&lt;/font&gt;" style="text;html=1;align=left;verticalAlign=middle;resizable=0;points=[];autosize=1;strokeColor=none;fillColor=none;" vertex="1" parent="1">
          <mxGeometry x="190" y="447" width="170" height="100" as="geometry" />
        </mxCell>
        <mxCell id="KGtTADQLknPRgAJbe7GY-11" value="" style="endArrow=none;html=1;rounded=0;" edge="1" parent="1">
          <mxGeometry width="50" height="50" relative="1" as="geometry">
            <mxPoint x="440" y="466" as="sourcePoint" />
            <mxPoint x="640" y="466" as="targetPoint" />
          </mxGeometry>
        </mxCell>
        <mxCell id="KGtTADQLknPRgAJbe7GY-12" value="" style="endArrow=none;html=1;rounded=0;" edge="1" parent="1">
          <mxGeometry width="50" height="50" relative="1" as="geometry">
            <mxPoint x="180" y="449" as="sourcePoint" />
            <mxPoint x="380" y="449" as="targetPoint" />
          </mxGeometry>
        </mxCell>
      </root>
    </mxGraphModel>
  </diagram>
</mxfile>
